<svg width="44" height="44" viewBox="0 0 44 44" fill="none" xmlns="http://www.w3.org/2000/svg">
<path d="M34 0.5H10C4.75329 0.5 0.5 4.75329 0.5 10V34C0.5 39.2467 4.75329 43.5 10 43.5H34C39.2467 43.5 43.5 39.2467 43.5 34V10C43.5 4.75329 39.2467 0.5 34 0.5Z" fill="#F5F5F5" stroke="#C0C0C0"/>
<path d="M32.7093 26.2932L22.7093 16.2931C22.5197 16.1053 22.2636 16 21.9968 16C21.7299 16 21.4739 16.1053 21.2843 16.2931L11.2843 26.2932C11.1486 26.4378 11.0567 26.6178 11.0191 26.8125C10.9815 27.0071 10.9997 27.2085 11.0718 27.3932C11.1483 27.5752 11.2769 27.7305 11.4416 27.8395C11.6062 27.9484 11.7994 28.0063 11.9968 28.0057H31.9968C32.1942 28.0063 32.3874 27.9484 32.552 27.8395C32.7166 27.7305 32.8453 27.5752 32.9218 27.3932C32.9938 27.2085 33.0121 27.0071 32.9745 26.8125C32.9369 26.6178 32.8449 26.4378 32.7093 26.2932Z" fill="#C0C0C0"/>
</svg>
