<svg width="1853" height="496" viewBox="0 0 1853 496" fill="none" xmlns="http://www.w3.org/2000/svg">
<path d="M98.886 0.932983H197.772V89.8689C197.772 95.3247 202.173 99.7246 207.631 99.7246H296.599V198.633H247.185C219.896 198.633 197.772 176.517 197.772 149.238V109.698C197.772 104.242 193.37 99.8419 187.913 99.8419H108.745C103.287 99.8419 98.886 104.242 98.886 109.698V188.778C98.886 194.234 103.287 198.633 108.745 198.633H148.3C175.589 198.633 197.713 220.75 197.713 248.029V287.569C197.713 293.025 202.115 297.425 207.572 297.425H296.54V396.275H207.631C202.173 396.275 197.772 400.675 197.772 406.131V495.067H98.886V406.19C98.886 400.734 94.4846 396.334 89.0268 396.334H0.000244141V297.484H49.4138C76.7027 297.484 98.8273 319.6 98.8273 346.88V386.42C98.8273 391.875 103.229 396.275 108.687 396.275H187.795C193.253 396.275 197.654 391.875 197.654 386.42V307.339C197.654 301.884 193.253 297.484 187.795 297.484H148.241C120.952 297.484 98.8273 275.367 98.8273 248.088V208.548C98.8273 203.092 94.4259 198.692 88.9681 198.692H0.000244141V99.7832H88.9681C94.4259 99.7832 98.8273 95.3834 98.8273 89.9275V0.932983H98.886Z" fill="#2D3A44"/>
<path d="M497.366 226.912C481.755 226.912 467.377 224.565 454.349 219.813C441.497 214.886 431.227 207.67 423.48 198.166C415.792 188.662 411.919 177.223 411.919 163.788L412.213 157.277H455.816L455.523 162.028C455.523 170.711 459.396 177.633 467.084 182.796C474.772 187.958 485.57 190.481 499.42 190.481C514.033 190.481 524.655 188.604 531.169 184.849C537.683 180.919 540.969 175.639 540.969 169.127C540.969 163.378 538.798 158.626 534.455 154.871C530.289 150.941 524.948 147.832 518.434 145.661C512.096 143.314 503.293 140.498 492.025 137.331C476.004 132.755 463.035 128.414 453.175 124.307C443.316 120.142 434.807 114.041 427.647 105.945C420.546 97.6145 416.966 86.7615 416.966 73.3272C416.966 54.7305 424.478 40.5922 439.502 30.9125C454.525 21.2328 474.478 16.3636 499.42 16.3636C522.953 16.3636 542.143 21.4088 556.991 31.4992C572.014 41.3549 579.526 56.3144 579.526 76.2605V79.839H536.803V77.1991C536.803 69.69 533.34 63.7648 526.415 59.4236C519.666 55.0825 510.512 52.9118 498.833 52.9118C486.392 52.9118 476.767 54.6131 470.077 57.957C463.563 61.3009 460.276 65.9354 460.276 71.9193C460.276 76.4951 462.272 80.4257 466.204 83.7696C470.136 86.9375 475.124 89.5774 481.051 91.748C486.978 93.7426 495.371 96.2065 506.286 99.1397C522.483 103.481 535.746 107.822 546.016 112.163C556.521 116.329 565.5 122.547 573.012 130.819C580.524 139.149 584.28 150.002 584.28 163.436C584.28 185.201 576.474 201.217 560.864 211.483C545.43 221.749 524.244 226.912 497.366 226.912Z" fill="#2D3A44"/>
<path d="M607.688 19.8842H650.704V118.089L744.719 19.8842H796.95L717.43 102.66L798.123 223.334H747.125L688.674 132.873L650.704 164.317V223.334H607.688V19.8842Z" fill="#2D3A44"/>
<path d="M870.118 141.203L792.417 19.8842H841.362L892.066 102.954H893.533L943.651 19.8842H990.248L913.134 141.203V223.334H870.118V141.203Z" fill="#2D3A44"/>
<path d="M1082.82 226.912C1017.15 226.912 984.345 191.83 984.345 121.667C984.345 86.4681 992.972 60.1863 1010.17 42.7628C1027.36 25.1634 1051.6 16.3636 1082.82 16.3636C1100.01 16.3636 1115.45 19.3556 1129.12 25.2807C1142.97 31.0299 1153.83 39.8883 1161.75 51.9732C1169.85 63.8235 1173.9 78.3724 1173.9 95.5612H1129.71C1129.71 82.3029 1125.48 71.9193 1116.97 64.4102C1108.47 56.7251 1097.37 52.8532 1083.76 52.8532C1065.16 52.8532 1051.31 58.3677 1042.21 69.4553C1033.11 80.543 1028.54 96.4412 1028.54 117.209V126.126C1028.54 169.01 1046.9 190.481 1083.7 190.481C1098.14 190.481 1109.58 186.726 1118.09 179.217C1126.78 171.708 1131.12 161.324 1131.12 148.066H1173.84C1173.84 165.49 1169.91 180.097 1161.99 191.948C1154.06 203.622 1143.32 212.422 1129.65 218.347C1116.04 224.037 1100.43 226.912 1082.82 226.912Z" fill="#2D3A44"/>
<path d="M1196.33 19.8842H1239.34V100.548H1327.78V19.8842H1370.74V223.334H1327.78V137.624H1239.34V223.334H1196.33V19.8842Z" fill="#2D3A44"/>
<path d="M1519.55 148.595L1500.25 96.9698C1497.9 90.634 1493.62 77.317 1487.51 56.9603H1486.04C1479.94 77.317 1475.66 90.6926 1473.31 96.9698L1454 148.595H1519.55ZM1461.1 19.8842H1515.09L1594.61 223.275H1547.72L1533.17 184.439H1440.62L1426.07 223.275H1381.58L1461.1 19.8842Z" fill="#2D3A44"/>
<path d="M1648.5 19.8842H1605.48V223.275H1648.5V19.8842Z" fill="#2D3A44"/>
<path d="M1678.59 19.8842H1720.43L1798.72 130.467C1801.06 133.811 1805.05 140.44 1810.57 150.355L1812.04 149.475L1811.16 132.286V19.8842H1853V223.275H1811.16L1732.52 111.812C1728.76 106.473 1724.89 99.9617 1720.96 92.2179L1719.49 93.1565C1720.08 101.663 1720.37 107.588 1720.37 110.932V223.334H1678.53V19.8842H1678.59Z" fill="#2D3A44"/>
<path d="M510.394 474.001C444.725 474.001 411.919 438.919 411.919 368.756C411.919 333.557 420.546 307.275 437.741 289.852C454.936 272.252 479.173 263.453 510.394 263.453C527.589 263.453 543.024 266.445 556.697 272.37C570.547 278.119 581.404 286.977 589.327 299.062C597.425 310.912 601.475 325.461 601.475 342.65H557.284C557.284 329.392 553.059 319.008 544.549 311.499C536.04 303.814 524.948 299.942 511.333 299.942C492.73 299.942 478.88 305.457 469.784 316.544C460.687 327.632 456.11 343.53 456.11 364.298V373.215C456.11 416.099 474.478 437.57 511.274 437.57C525.711 437.57 537.155 433.815 545.664 426.306C554.35 418.797 558.693 408.413 558.693 395.155H601.416C601.416 412.579 597.484 427.186 589.561 439.037C581.639 450.711 570.899 459.511 557.225 465.436C543.61 471.126 528 474.001 510.394 474.001Z" fill="#2D3A44"/>
<path d="M739.623 395.68L720.316 344.055C717.968 337.719 713.684 324.402 707.581 304.045H706.114C700.01 324.402 695.726 337.778 693.379 344.055L674.071 395.68H739.623ZM681.172 267.028H735.163L814.683 470.419H767.793L753.239 431.583H660.691L646.137 470.419H601.653L681.172 267.028Z" fill="#2D3A44"/>
<path d="M918.684 364.001C927.956 364.001 935.116 361.361 940.046 356.023C944.975 350.684 947.44 343.175 947.44 333.495C947.44 323.992 944.975 316.717 940.046 311.555C935.116 306.216 927.956 303.576 918.684 303.576H868.566V364.06H918.684V364.001ZM825.549 267.028H922.557C945.327 267.028 962.405 272.836 973.849 284.51C985.292 295.95 991.044 312.259 991.044 333.437C991.044 354.615 984.999 371.099 972.968 382.95C961.114 394.624 943.332 400.432 919.564 400.432H868.566V470.419H825.549V267.028Z" fill="#2D3A44"/>
<path d="M1056.96 267.028H1013.94V470.419H1056.96V267.028Z" fill="#2D3A44"/>
<path d="M1136.23 304.045H1073.32V267.028H1242.1V304.045H1179.25V470.419H1136.23V304.045Z" fill="#2D3A44"/>
<path d="M1353.78 395.68L1334.47 344.055C1332.13 337.719 1327.84 324.402 1321.74 304.045H1320.27C1314.17 324.402 1309.88 337.778 1307.54 344.055L1288.23 395.68H1353.78ZM1295.33 267.028H1349.32L1428.84 470.419H1381.95L1367.4 431.583H1274.85L1260.29 470.419H1215.81L1295.33 267.028Z" fill="#2D3A44"/>
<path d="M1439.67 267.028H1482.68V433.049H1592.43V470.419H1439.67V267.028Z" fill="#2D3A44"/>
</svg>
